<svg height="389pt" viewBox="0 0 389 389.12381" width="389pt" xmlns="http://www.w3.org/2000/svg"><path d="m61.5 37.542969c-3.773438 0-6.824219-3.050781-6.824219-6.824219v-10.234375c0-11.292969 9.1875-20.48046875 20.480469-20.48046875h204.800781c3.773438 0 6.824219 3.05468775 6.824219 6.82812475 0 3.773438-3.050781 6.824219-6.824219 6.824219h-204.800781c-3.769531 0-6.828125 3.0625-6.828125 6.828125v10.234375c0 3.773438-3.054687 6.824219-6.828125 6.824219zm0 0"/><path d="m327.742188 389.125h-252.585938c-11.292969 0-20.480469-9.1875-20.480469-20.480469v-238.933593c0-3.773438 3.050781-6.828126 6.824219-6.828126s6.828125 3.054688 6.828125 6.828126v238.933593c0 3.765625 3.058594 6.824219 6.828125 6.824219h252.585938c3.765624 0 6.828124-3.058594 6.828124-6.824219v-300.367187c0-3.773438 3.050782-6.828125 6.824219-6.828125 3.773438 0 6.828125 3.054687 6.828125 6.828125v300.367187c0 11.292969-9.1875 20.480469-20.480468 20.480469zm0 0"/><path d="m341.394531 75.097656h-61.4375c-3.773437 0-6.828125-3.054687-6.828125-6.828125v-61.4375c0-2.761719 1.660156-5.253906 4.214844-6.308593 2.558594-1.066407 5.484375-.4726568 7.4375 1.480468l61.441406 61.441406c1.953125 1.953126 2.539063 4.886719 1.480469 7.4375-1.054687 2.554688-3.546875 4.214844-6.308594 4.214844zm-54.613281-13.652344h38.132812l-38.132812-38.132812zm0 0"/><path d="m204.863281 259.417969c-16.355469 0-31.347656-5.769531-40.113281-15.421875-2.535156-2.785156-2.328125-7.105469.464844-9.636719 2.785156-2.523437 7.097656-2.335937 9.640625.464844 6.125 6.746093 17.625 10.941406 30.003906 10.941406 12.242187 0 23.679687-4.128906 29.847656-10.769531 2.550781-2.765625 6.878907-2.917969 9.644531-.351563 2.761719 2.566407 2.921876 6.886719.355469 9.644531-8.792969 9.476563-23.691406 15.128907-39.84375 15.128907zm0 0"/><path d="m157.074219 170.671875c0 7.539063-6.113281 13.652344-13.652344 13.652344s-13.652344-6.113281-13.652344-13.652344c0-7.542969 6.113281-13.65625 13.652344-13.65625s13.652344 6.113281 13.652344 13.65625zm0 0"/><path d="m279.957031 170.671875c0 7.539063-6.113281 13.652344-13.65625 13.652344-7.539062 0-13.652343-6.113281-13.652343-13.652344 0-7.542969 6.113281-13.65625 13.652343-13.65625 7.542969 0 13.65625 6.113281 13.65625 13.65625zm0 0"/><path d="m382.355469 389.125h-116.054688c-3.773437 0-6.824219-3.054688-6.824219-6.828125s3.050782-6.828125 6.824219-6.828125h116.054688c3.773437 0 6.828125 3.054688 6.828125 6.828125s-3.054688 6.828125-6.828125 6.828125zm0 0"/><path d="m207.703125 136.539062h-200.816406c-3.773438 0-6.824219-3.054687-6.824219-6.828124v-95.574219c0-3.773438 3.050781-6.828125 6.824219-6.828125h207.640625c4.730468 0 8.96875 2.441406 11.335937 6.535156 2.273438 3.914062 2.378907 8.574219.3125 12.558594l-13.464843 34.234375c-.328126.832031-.328126 1.742187 0 2.566406l13.484374 34.289063c1.453126 2.945312 1.285157 6.324218-.472656 9.363281-3.214844 5.542969-12.160156 9.683593-18.019531 9.683593zm-193.988281-13.65625h193.988281c1.160156-.003906 3.625-1.039062 5.144531-2.027343l-12.84375-32.644531c-1.601562-4.054688-1.601562-8.519532 0-12.582032l13.617188-34.605468c.007812-.019532.023437-.039063.027344-.058594h-199.933594zm0 0"/><path d="m68.328125 116.058594h-34.132813c-3.773437 0-6.828124-3.054688-6.828124-6.828125v-54.613281c0-3.773438 3.054687-6.828126 6.828124-6.828126h34.132813c3.773437 0 6.828125 3.054688 6.828125 6.828126 0 3.773437-3.054688 6.828124-6.828125 6.828124h-27.304687v40.957032h27.304687c3.773437 0 6.828125 3.054687 6.828125 6.828125 0 3.773437-3.054688 6.828125-6.828125 6.828125zm0 0"/><path d="m122.941406 116.058594h-34.132812c-3.773438 0-6.828125-3.054688-6.828125-6.828125 0-3.773438 3.054687-6.828125 6.828125-6.828125h27.308594v-13.652344h-27.308594c-3.773438 0-6.828125-3.054688-6.828125-6.828125v-27.304687c0-3.773438 3.054687-6.828126 6.828125-6.828126h34.132812c3.773438 0 6.828125 3.054688 6.828125 6.828126 0 3.773437-3.054687 6.828124-6.828125 6.828124h-27.304687v13.652344h27.304687c3.773438 0 6.828125 3.050782 6.828125 6.824219v27.308594c0 3.773437-3.054687 6.828125-6.828125 6.828125zm0 0"/><path d="m61.5 170.671875c-1.257812 0-2.511719-.347656-3.617188-1.039063l-54.613281-34.136718c-2.582031-1.609375-3.78125-4.738282-2.941406-7.664063s3.515625-4.945312 6.558594-4.945312h54.613281c3.773438 0 6.828125 3.050781 6.828125 6.824219v34.132812c0 2.480469-1.347656 4.769531-3.519531 5.976562-1.027344.5625-2.167969.851563-3.308594.851563zm-30.8125-34.132813 23.988281 14.984376v-14.984376zm0 0"/><path d="m163.902344 116.058594c-2.847656 0-5.394532-1.769532-6.394532-4.429688l-20.480468-54.613281c-1.316406-3.53125.46875-7.464844 3.996094-8.792969 3.53125-1.3125 7.464843.460938 8.792968 3.996094l14.085938 37.574219 14.085937-37.574219c1.328125-3.535156 5.265625-5.308594 8.792969-3.996094 3.527344 1.328125 5.3125 5.261719 3.992188 8.792969l-20.476563 54.613281c-1 2.660156-3.546875 4.429688-6.394531 4.429688zm0 0"/></svg>